PathFileType	4	(X/Y/Z)	/Users/itak/Documents/Research/Walk-IL/dataset/trc/00308_00010.trc
DataRate	CameraRate	NumFrames	NumMarkers	Units	OrigDataRate	OrigDataStartFrame	OrigNumFrames
100.000000	100.000000	4	53	mm	100.000000	185	495
Frame#	Time	RPSI			LPSI			L3			STRN			T10			C7			CLAV			RBAK			LBAK			LSHO			LUPA			LAEL			LAOL			LWTS			LWPS			LFRA			LIFD			LHPS			LHTS			RSHO			RUPA			RAEL			RAOL			RWTS			RWPS			RFRA			RIFD			RHTS			RHPS			RBHD			LFHD			RFHD			LBHD			LHIP			RHIP			RASI			LASI			LKNE			LTHI			LANK			LTIP			LTOE			LMT1			LMT5			LHEE			RKNE			RTHI			RANK			RTIP			RTOE			RMT1			RMT5			RHEE			
		X1	Y1	Z1	X2	Y2	Z2	X3	Y3	Z3	X4	Y4	Z4	X5	Y5	Z5	X6	Y6	Z6	X7	Y7	Z7	X8	Y8	Z8	X9	Y9	Z9	X10	Y10	Z10	X11	Y11	Z11	X12	Y12	Z12	X13	Y13	Z13	X14	Y14	Z14	X15	Y15	Z15	X16	Y16	Z16	X17	Y17	Z17	X18	Y18	Z18	X19	Y19	Z19	X20	Y20	Z20	X21	Y21	Z21	X22	Y22	Z22	X23	Y23	Z23	X24	Y24	Z24	X25	Y25	Z25	X26	Y26	Z26	X27	Y27	Z27	X28	Y28	Z28	X29	Y29	Z29	X30	Y30	Z30	X31	Y31	Z31	X32	Y32	Z32	X33	Y33	Z33	X34	Y34	Z34	X35	Y35	Z35	X36	Y36	Z36	X37	Y37	Z37	X38	Y38	Z38	X39	Y39	Z39	X40	Y40	Z40	X41	Y41	Z41	X42	Y42	Z42	X43	Y43	Z43	X44	Y44	Z44	X45	Y45	Z45	X46	Y46	Z46	X47	Y47	Z47	X48	Y48	Z48	X49	Y49	Z49	X50	Y50	Z50	X51	Y51	Z51	X52	Y52	Z52	X53	Y53	Z53	

186	1.85	-772.2274780273438	986.675537109375	-383.6373291015625	-734.0438842773438	975.87646484375	-553.9349365234375	-728.910400390625	1053.491577148438	-478.3622436523438	-473.5043334960938	1215.089233398438	-405.6581420898438	-728.1719970703125	1165.046264648438	-488.3746337890625	-670.8917846679688	1406.896118164062	-484.0193176269531	-527.7879028320312	1319.509643554688	-425.6715698242188	-749.454833984375	1269.217651367188	-434.3742065429688	-649.3040771484375	1374.433837890625	-587.765625	-545.795654296875	1379.563598632812	-605.6127319335938	-552.0546875	1265.163940429688	-686.4002075195312	-547.1221313476562	1062.878173828125	-705.129638671875	-624.3380126953125	1047.676391601562	-664.8712768554688	-457.4756774902344	857.2940673828125	-634.5364379882812	-475.3255920410156	836.89306640625	-702.9993286132812	-523.2409057617188	961.7442016601562	-709.4573974609375	-412.8679809570312	682.50537109375	-620.5216674804688	-450.6075134277344	751.6779174804688	-692.3672485351562	-408.7001647949219	769.3206176757812	-644.4202270507812	-665.3111572265625	1379.371459960938	-313.3889770507812	-699.7969970703125	1322.6455078125	-256.4971618652344	-756.0462036132812	1062.739013671875	-218.0090942382812	-743.0739135742188	1052.919921875	-312.1869201660156	-657.536376953125	832.5108642578125	-215.7025451660156	-727.9031982421875	832.6214599609375	-168.79931640625	-744.7225341796875	994.7706909179688	-195.0566101074219	-664.995849609375	646.1764526367188	-215.0968627929688	-645.7590942382812	715.7362670898438	-187.4517059326172	-712.774169921875	719.4295654296875	-161.4637908935547	-679.9453735351562	1562.338623046875	-416.7613830566406	-470.8299560546875	1600.161010742188	-420.9895629882812	-521.52392578125	1591.751953125	-343.5087585449219	-598.7853393554688	1565.953369140625	-538.1959838867188	-651.6802368164062	920.5750122070312	-632.9265747070312	-689.9685668945312	939.1998291015625	-259.2079772949219	-565.6599731445312	932.3746337890625	-312.209228515625	-523.1882934570312	920.8113403320312	-559.126220703125	-610.8892211914062	454.6241149902344	-643.178466796875	-606.6437377929688	596.4288330078125	-644.2897338867188	-973.4644165039062	198.2516326904297	-696.750732421875	-791.105712890625	315.5378723144531	-681.0433349609375	-898.7366333007812	29.80946922302246	-627.6824340820312	-941.7869873046875	75.86442565917969	-586.48583984375	-933.0465698242188	84.00651550292969	-704.4822998046875	-1002.684020996094	237.2937774658203	-639.5052490234375	-533.6810913085938	480.6123657226562	-309.0947875976562	-590.81591796875	735.827392578125	-256.7994384765625	-592.6253051757812	43.56869125366211	-374.3660888671875	-512.262939453125	355.9629516601562	-329.5894775390625	-388.5755615234375	42.69642639160156	-389.9490051269531	-438.527587890625	39.09882354736328	-439.3353271484375	-493.7245483398438	35.30755233764648	-334.6029357910156	-632.2651977539062	37.6088752746582	-432.0983581542969	
187	1.86	-765.7015380859375	987.6524047851562	-380.6748962402344	-727.0043334960938	976.1137084960938	-550.8810424804688	-721.850341796875	1054.188842773438	-474.8802490234375	-466.8065490722656	1215.778930664062	-402.0339965820312	-721.2532348632812	1165.907958984375	-484.7348327636719	-664.125732421875	1407.796020507812	-480.2359619140625	-520.9402465820312	1320.298461914062	-421.8936157226562	-742.7073974609375	1269.9453125	-430.4967041015625	-642.35986328125	1375.447143554688	-583.9918823242188	-538.7494506835938	1380.676147460938	-601.692626953125	-544.7418823242188	1266.262573242188	-682.5007934570312	-539.2337646484375	1064.136108398438	-701.570556640625	-616.5560302734375	1048.596313476562	-661.5946655273438	-448.8689880371094	858.72216796875	-631.5755615234375	-466.333984375	838.8131103515625	-700.1530151367188	-515.0281372070312	963.2825317382812	-706.2588500976562	-404.486328125	683.6194458007812	-618.6267700195312	-441.8218688964844	753.492919921875	-690.1236572265625	-400.1197814941406	770.6818237304688	-641.6600952148438	-658.460693359375	1380.109497070312	-309.59326171875	-692.8137817382812	1323.376098632812	-252.5807800292969	-747.28662109375	1063.235717773438	-212.1566162109375	-734.86669921875	1052.722412109375	-306.4761047363281	-644.81005859375	834.8378295898438	-208.6889038085938	-715.0752563476562	833.8681030273438	-161.5481262207031	-734.9107666015625	995.4884643554688	-188.8524932861328	-647.4130859375	648.61865234375	-205.5708312988281	-630.0811767578125	718.83349609375	-178.8515930175781	-697.1336059570312	721.290771484375	-152.8931579589844	-673.6192016601562	1562.949462890625	-413.1119689941406	-464.6173706054688	1601.403442382812	-416.7863159179688	-515.4597778320312	1592.843017578125	-339.4362487792969	-592.11572265625	1566.822631835938	-534.3411254882812	-644.0183715820312	920.7949829101562	-629.2888793945312	-684.2611694335938	939.7723388671875	-256.2162170410156	-559.3875122070312	932.9561767578125	-308.2704467773438	-515.9014892578125	921.6331176757812	-554.9934692382812	-591.6968994140625	455.0461730957031	-638.7671508789062	-591.8876953125	596.9739379882812	-640.2413330078125	-955.1156005859375	204.9166107177734	-697.818115234375	-771.33154296875	317.4903259277344	-679.0390625	-890.9379272460938	29.67740631103516	-625.7310180664062	-931.8154907226562	80.91927337646484	-586.6672973632812	-920.2213745117188	88.29038238525391	-703.8302612304688	-984.0430297851562	244.8531951904297	-641.15380859375	-531.3073120117188	479.9765319824219	-307.0416259765625	-586.0560913085938	735.6962890625	-253.7021331787109	-592.5366821289062	43.43849182128906	-374.3095703125	-510.5452880859375	355.3006286621094	-328.22265625	-388.6297607421875	42.66335296630859	-389.9411315917969	-438.5501403808594	39.11213684082031	-439.2995910644531	-493.7566223144531	35.23382949829102	-334.5436096191406	-632.2665405273438	37.63106536865234	-432.092041015625	
188	1.87	-759.37939453125	988.4812622070312	-377.8729248046875	-720.02294921875	976.263671875	-547.958740234375	-714.9415893554688	1054.764526367188	-471.4905090332031	-460.2250671386719	1216.325927734375	-398.5003051757812	-714.4844970703125	1166.772583007812	-481.1770324707031	-657.3721313476562	1408.688110351562	-476.5290222167969	-514.1395263671875	1320.952026367188	-418.2028198242188	-736.0553588867188	1270.73291015625	-426.6668395996094	-635.434326171875	1376.408325195312	-580.2935791015625	-531.722900390625	1381.678100585938	-597.8649291992188	-537.5230102539062	1267.231079101562	-678.6919555664062	-531.47021484375	1065.262084960938	-698.0997314453125	-608.8911743164062	1049.400390625	-658.3875732421875	-440.4198608398438	860.0206909179688	-628.7067260742188	-457.5878601074219	840.57421875	-697.3855590820312	-506.9669799804688	964.6710205078125	-703.1249389648438	-396.1685485839844	684.6370239257812	-616.900634765625	-433.2157897949219	755.174560546875	-687.96435546875	-391.6868286132812	771.9466552734375	-639.0860595703125	-651.5940551757812	1380.822998046875	-305.8560485839844	-685.7979736328125	1324.066284179688	-248.7008361816406	-738.3226318359375	1063.64453125	-206.2844696044922	-726.5732421875	1052.45068359375	-300.7267150878906	-632.0296020507812	837.1686401367188	-201.7058715820312	-702.1505737304688	835.1729736328125	-154.2695465087891	-724.8796997070312	996.1732177734375	-182.6159057617188	-629.950927734375	651.1984252929688	-196.0577239990234	-614.4430541992188	722.0189208984375	-170.2815399169922	-681.4827880859375	723.2715454101562	-144.2571105957031	-667.2698364257812	1563.51025390625	-409.5246887207031	-458.3859252929688	1602.580444335938	-412.6053161621094	-509.3955993652344	1593.869140625	-335.3958435058594	-585.4200439453125	1567.6474609375	-530.5340576171875	-636.3485717773438	921.0010375976562	-625.7420043945312	-679.0435791015625	940.21337890625	-253.4574127197266	-553.3218994140625	933.5133056640625	-304.3480224609375	-508.691162109375	922.3970336914062	-550.8878784179688	-572.4266967773438	455.7175598144531	-633.7192993164062	-577.0916748046875	597.6636352539062	-635.7880249023438	-936.0001831054688	210.4986419677734	-698.6738891601562	-751.1693725585938	319.3182373046875	-676.5927124023438	-880.6106567382812	30.1155948638916	-622.8560791015625	-920.021484375	85.85202789306641	-586.5358276367188	-905.0809936523438	92.24182891845703	-702.5033569335938	-965.0921630859375	251.2957153320312	-642.8467407226562	-529.1502685546875	479.3077697753906	-305.0687255859375	-581.4967651367188	735.47705078125	-250.6999359130859	-592.4695434570312	43.33716201782227	-374.2904968261719	-509.057373046875	354.6387939453125	-326.8623352050781	-388.6722717285156	42.62936019897461	-389.94384765625	-438.5715942382812	39.11041259765625	-439.2821655273438	-493.7828979492188	35.17519378662109	-334.5048522949219	-632.2675170898438	37.65632629394531	-432.1177978515625	
189	1.88	-753.2243041992188	989.1805419921875	-375.2335510253906	-713.046875	976.37451171875	-545.16455078125	-708.1676025390625	1055.260131835938	-468.2008666992188	-453.74658203125	1216.786743164062	-395.0248107910156	-707.8541870117188	1167.646118164062	-477.7039184570312	-650.6463012695312	1409.579711914062	-472.9041137695312	-507.3940124511719	1321.50830078125	-414.5849304199219	-729.5007934570312	1271.58837890625	-422.8933410644531	-628.5403442382812	1377.32666015625	-576.6724853515625	-524.725830078125	1382.596801757812	-594.1248168945312	-530.4016723632812	1268.107666015625	-674.9759521484375	-523.8484497070312	1066.285888671875	-694.7216796875	-601.3453369140625	1050.127319335938	-655.2266845703125	-432.1611633300781	861.2056274414062	-625.9378051757812	-449.1373291015625	842.1817016601562	-694.702392578125	-499.074951171875	965.9312744140625	-700.055419921875	-387.9436340332031	685.5912475585938	-615.3308715820312	-424.8280029296875	756.7330322265625	-685.8822021484375	-383.4335632324219	773.1321411132812	-636.7059326171875	-644.7317504882812	1381.5390625	-302.1835327148438	-678.7708129882812	1324.7470703125	-244.8626556396484	-729.1609497070312	1064.005737304688	-200.4222259521484	-718.1734008789062	1052.15380859375	-294.9577941894531	-619.2108764648438	839.5156860351562	-194.7609710693359	-689.1485595703125	836.5582275390625	-146.9936218261719	-714.6400146484375	996.8574829101562	-176.3780670166016	-612.6929321289062	653.9078979492188	-186.6073913574219	-598.9105224609375	725.27392578125	-161.78271484375	-665.8870849609375	725.3767700195312	-135.6107482910156	-660.8997192382812	1564.051635742188	-406.0009460449219	-452.1263122558594	1603.692504882812	-408.4444885253906	-503.3316345214844	1594.8359375	-331.3859252929688	-578.6907958984375	1568.447875976562	-526.7723388671875	-628.6122436523438	921.2362670898438	-622.2769165039062	-674.272216796875	940.569091796875	-250.8677673339844	-547.4589233398438	934.0687866210938	-300.4146728515625	-501.5172729492188	923.1497192382812	-546.763916015625	-553.1524658203125	456.66796875	-628.0287475585938	-562.24267578125	598.51220703125	-630.9339599609375	-916.21875	214.8723449707031	-699.2420043945312	-730.7348022460938	321.0303344726562	-673.6613159179688	-867.4351806640625	31.19612503051758	-619.0984497070312	-906.2435302734375	90.444580078125	-585.9444580078125	-887.538818359375	95.73154449462891	-700.4513549804688	-945.9758911132812	256.4813842773438	-644.531005859375	-527.20849609375	478.620361328125	-303.1711730957031	-577.1455078125	735.1815185546875	-247.7892761230469	-592.429443359375	43.26424789428711	-374.3022766113281	-507.8135681152344	353.9785766601562	-325.4870300292969	-388.7088317871094	42.59428405761719	-389.9548034667969	-438.5906982421875	39.09807205200195	-439.2791748046875	-493.8058471679688	35.12868499755859	-334.4819946289062	-632.2775268554688	37.68812561035156	-432.1711120605469	
